<?xml version="1.0" encoding="iso-8859-1"?>
<!-- Uploaded to: SVG Repo, www.svgrepo.com, Generator: SVG Repo Mixer Tools -->
<svg height="800px" width="800px" version="1.1" id="Layer_1" xmlns="http://www.w3.org/2000/svg" xmlns:xlink="http://www.w3.org/1999/xlink" 
	 viewBox="0 0 512 512" xml:space="preserve">
<g transform="translate(1)">
	<g>
		<path style="fill:#FFE100;" d="M109.933,405.333H24.6V192h460.8v213.333h-85.333c0-80.213-64.853-145.067-145.067-145.067
			S109.933,325.12,109.933,405.333"/>
		<polygon style="fill:#FFE100;" points="7.533,192 502.467,192 502.467,157.867 7.533,157.867 		"/>
	</g>
	<polygon style="fill:#FFA800;" points="476.867,192 502.467,192 502.467,157.867 476.867,157.867 	"/>
	<polygon style="fill:#FFFFFF;" points="7.533,192 33.133,192 33.133,157.867 7.533,157.867 	"/>
	<polygon style="fill:#FFA800;" points="459.8,405.333 485.4,405.333 485.4,192 459.8,192 	"/>
	<polygon style="fill:#FFFFFF;" points="24.6,405.333 50.2,405.333 50.2,192 24.6,192 	"/>
	<g>
		<path style="fill:#FFE100;" d="M58.733,174.933c-5.12,0-8.533-3.413-8.533-8.533v-51.2c0-5.12,3.413-8.533,8.533-8.533
			s8.533,3.413,8.533,8.533v51.2C67.267,171.52,63.853,174.933,58.733,174.933z"/>
		<path style="fill:#FFE100;" d="M263.533,174.933c-5.12,0-8.533-3.413-8.533-8.533v-51.2c0-5.12,3.413-8.533,8.533-8.533
			c5.12,0,8.533,3.413,8.533,8.533v51.2C272.067,171.52,268.653,174.933,263.533,174.933z"/>
		<path style="fill:#FFE100;" d="M314.733,174.933c-5.12,0-8.533-3.413-8.533-8.533v-51.2c0-5.12,3.413-8.533,8.533-8.533
			c5.12,0,8.533,3.413,8.533,8.533v51.2C323.267,171.52,319.853,174.933,314.733,174.933z"/>
		<path style="fill:#FFE100;" d="M365.933,174.933c-5.12,0-8.533-3.413-8.533-8.533v-51.2c0-5.12,3.413-8.533,8.533-8.533
			s8.533,3.413,8.533,8.533v51.2C374.467,171.52,371.053,174.933,365.933,174.933z"/>
		<path style="fill:#FFE100;" d="M417.133,174.933c-5.12,0-8.533-3.413-8.533-8.533v-51.2c0-5.12,3.413-8.533,8.533-8.533
			s8.533,3.413,8.533,8.533v51.2C425.667,171.52,422.253,174.933,417.133,174.933z"/>
		<path style="fill:#FFE100;" d="M468.333,174.933c-5.12,0-8.533-3.413-8.533-8.533v-51.2c0-5.12,3.413-8.533,8.533-8.533
			c5.12,0,8.533,3.413,8.533,8.533v51.2C476.867,171.52,473.453,174.933,468.333,174.933z"/>
		<path style="fill:#FFE100;" d="M161.133,174.933c-5.12,0-8.533-3.413-8.533-8.533v-51.2c0-5.12,3.413-8.533,8.533-8.533
			c5.12,0,8.533,3.413,8.533,8.533v51.2C169.667,171.52,166.253,174.933,161.133,174.933z"/>
		<path style="fill:#FFE100;" d="M109.933,174.933c-5.12,0-8.533-3.413-8.533-8.533v-51.2c0-5.12,3.413-8.533,8.533-8.533
			s8.533,3.413,8.533,8.533v51.2C118.467,171.52,115.053,174.933,109.933,174.933z"/>
		<path style="fill:#FFE100;" d="M212.333,174.933c-5.12,0-8.533-3.413-8.533-8.533v-51.2c0-5.12,3.413-8.533,8.533-8.533
			c5.12,0,8.533,3.413,8.533,8.533v51.2C220.867,171.52,217.453,174.933,212.333,174.933z"/>
		<path style="fill:#FFE100;" d="M502.467,123.733h-486.4c-5.12,0-8.533-3.413-8.533-8.533c0-5.12,3.413-8.533,8.533-8.533h486.4
			c5.12,0,8.533,3.413,8.533,8.533S507.587,123.733,502.467,123.733z"/>
	</g>
	<path d="M502.467,200.533H7.533C2.413,200.533-1,197.12-1,192v-34.133c0-5.12,3.413-8.533,8.533-8.533h494.933
		c5.12,0,8.533,3.413,8.533,8.533V192C511,197.12,507.587,200.533,502.467,200.533z M16.067,183.467h477.867V166.4H16.067V183.467z"
		/>
	<path d="M485.4,413.867h-85.333c-5.12,0-8.533-3.413-8.533-8.533c0-75.093-61.44-136.533-136.533-136.533
		s-136.533,61.44-136.533,136.533c0,5.12-3.413,8.533-8.533,8.533H24.6c-5.12,0-8.533-3.413-8.533-8.533V192
		c0-5.12,3.413-8.533,8.533-8.533h460.8c5.12,0,8.533,3.413,8.533,8.533v213.333C493.933,410.453,490.52,413.867,485.4,413.867z
		 M408.6,396.8h68.267V200.533H33.133V396.8H101.4c4.267-81.067,71.68-145.067,153.6-145.067S404.333,315.733,408.6,396.8z"/>
	<path d="M50.2,166.4c-5.12,0-8.533-3.413-8.533-8.533v-51.2c0-5.12,3.413-8.533,8.533-8.533s8.533,3.413,8.533,8.533v51.2
		C58.733,162.987,55.32,166.4,50.2,166.4z"/>
	<path d="M255,166.4c-5.12,0-8.533-3.413-8.533-8.533v-51.2c0-5.12,3.413-8.533,8.533-8.533s8.533,3.413,8.533,8.533v51.2
		C263.533,162.987,260.12,166.4,255,166.4z"/>
	<path d="M306.2,166.4c-5.12,0-8.533-3.413-8.533-8.533v-51.2c0-5.12,3.413-8.533,8.533-8.533s8.533,3.413,8.533,8.533v51.2
		C314.733,162.987,311.32,166.4,306.2,166.4z"/>
	<path d="M357.4,166.4c-5.12,0-8.533-3.413-8.533-8.533v-51.2c0-5.12,3.413-8.533,8.533-8.533s8.533,3.413,8.533,8.533v51.2
		C365.933,162.987,362.52,166.4,357.4,166.4z"/>
	<path d="M408.6,166.4c-5.12,0-8.533-3.413-8.533-8.533v-51.2c0-5.12,3.413-8.533,8.533-8.533c5.12,0,8.533,3.413,8.533,8.533v51.2
		C417.133,162.987,413.72,166.4,408.6,166.4z"/>
	<path d="M459.8,166.4c-5.12,0-8.533-3.413-8.533-8.533v-51.2c0-5.12,3.413-8.533,8.533-8.533s8.533,3.413,8.533,8.533v51.2
		C468.333,162.987,464.92,166.4,459.8,166.4z"/>
	<path d="M152.6,166.4c-5.12,0-8.533-3.413-8.533-8.533v-51.2c0-5.12,3.413-8.533,8.533-8.533c5.12,0,8.533,3.413,8.533,8.533v51.2
		C161.133,162.987,157.72,166.4,152.6,166.4z"/>
	<path d="M101.4,166.4c-5.12,0-8.533-3.413-8.533-8.533v-51.2c0-5.12,3.413-8.533,8.533-8.533c5.12,0,8.533,3.413,8.533,8.533v51.2
		C109.933,162.987,106.52,166.4,101.4,166.4z"/>
	<path d="M203.8,166.4c-5.12,0-8.533-3.413-8.533-8.533v-51.2c0-5.12,3.413-8.533,8.533-8.533c5.12,0,8.533,3.413,8.533,8.533v51.2
		C212.333,162.987,208.92,166.4,203.8,166.4z"/>
	<path d="M502.467,115.2H7.533c-5.12,0-8.533-3.413-8.533-8.533s3.413-8.533,8.533-8.533h494.933c5.12,0,8.533,3.413,8.533,8.533
		S507.587,115.2,502.467,115.2z"/>
	<path d="M92.867,243.2H58.733c-5.12,0-8.533-3.413-8.533-8.533c0-5.12,3.413-8.533,8.533-8.533h34.133
		c5.12,0,8.533,3.413,8.533,8.533C101.4,239.787,97.987,243.2,92.867,243.2z"/>
	<path d="M118.467,285.867H84.333c-5.12,0-8.533-3.413-8.533-8.533s3.413-8.533,8.533-8.533h34.133c5.12,0,8.533,3.413,8.533,8.533
		S123.587,285.867,118.467,285.867z"/>
	<path d="M451.267,243.2h-34.133c-5.12,0-8.533-3.413-8.533-8.533c0-5.12,3.413-8.533,8.533-8.533h34.133
		c5.12,0,8.533,3.413,8.533,8.533C459.8,239.787,456.387,243.2,451.267,243.2z"/>
	<path d="M425.667,285.867h-34.133c-5.12,0-8.533-3.413-8.533-8.533s3.413-8.533,8.533-8.533h34.133c5.12,0,8.533,3.413,8.533,8.533
		S430.787,285.867,425.667,285.867z"/>
</g>
</svg>